# xmcd CD database file
#
# Track frame offsets:
#	150
#	8322
#	20387
#	33247
#	47956
#	61876
#	75232
#	89216
#	103376
#	113431
#	124677
#	141178
#	158548
#	171083
#	185756
#	199947
#	213431
#	224405
#	238346
#	250126
#	264529
#	276577
#	288793
#	303782
#	316162
#
# Disc length: 4429 seconds
#
# Revision: 7
# Processed by: cddbd v1.5.2PL0 Copyright (c) Steve Scherf et al.
# Submitted via: CDex 1.51
#
DISCID=61114b19
DTITLE=Various Artist - City Jazz - Vol. 07-10  { 1938-1939 }
DYEAR=2002
DGENRE=Jazz
TTITLE0=Slim and Slam - The Flat Foot Floogie  [1938]
TTITLE1=Chick Webb and Ella Fitzgerald - A Ticket A Tasket  [1938]
TTITLE2=Herman Chittison - My Own Blues  [1938]
TTITLE3=Artie Shaw - Begin The Beguine  [1938]
TTITLE4=Count Basie - Jumpin' At The Woodside  [1938]
TTITLE5=Duke Ellington - Battle Of Swing  [1938]
TTITLE6=Andy Kirk - Mess-A-Stomp  [1938]
TTITLE7=Tommy Dorsey - Boogie Woogie  [1938]
TTITLE8=Nat King Cole - With Plenty Of Money And You  [1938]
TTITLE9=Bobby Hackett - Doin' The New Low Down  [1938]
TTITLE10=Tommy Ladnier - Really The Blues  [1938]
TTITLE11=Count Basie - I Ain't Got Nobody  [1938]
TTITLE12=Willie The ''Lion'' Smith - Passionette  [1939]
TTITLE13=Frankie Newton - The Blues My Baby Gave To Me  [1939]
TTITLE14=Andy Kirk - Floyd's Guitar Blues  [1939]
TTITLE15=Nat King Cole - Two Against One  [1939]
TTITLE16=Lionel Hampton - Wizzin' The Wizz  [1939]
TTITLE17=Rex Stewart - Solid Old Man  [1939]
TTITLE18=Art Tatum - Tea For Two  [1939]
TTITLE19=Billie Holiday - Strange Fruit  [1939]
TTITLE20=George Van Eps Trio - Kay's Fantasy  [1939]
TTITLE21=Earl Hines and His Orchestra - Grand Terrace Shuffle  [1939]
TTITLE22=Erskine Hawkins - Tuxedo Junction  [1939]
TTITLE23=Bud Freeman - The Eel  [1939]
TTITLE24=Glenn Miller - In The Mood  [1939]
EXTD=February 1938 to August 1939 YEAR: 2002
EXTT0=
EXTT1=
EXTT2=
EXTT3=
EXTT4=
EXTT5=
EXTT6=
EXTT7=
EXTT8=
EXTT9=
EXTT10=(with Sidney Bechet)
EXTT11=
EXTT12=
EXTT13=
EXTT14=
EXTT15=
EXTT16=
EXTT17=
EXTT18=
EXTT19=
EXTT20=
EXTT21=
EXTT22=
EXTT23=
EXTT24=
PLAYORDER=
